<svg id="Layer_1" data-name="Layer 1" xmlns="http://www.w3.org/2000/svg" viewBox="0 0 201.24 60.91"><defs><style>.cls-1{fill:#fff27b;stroke:#323232;stroke-miterlimit:10;stroke-width:0.5px;}</style></defs><path class="cls-1" d="M199.8,24.88l.55-.75-2.66-5.35H110a5.52,5.52,0,0,1-.54-2.5c0-4.65,4.29-8.75,11.13-8.75,7,0,13.55,3.83,19.92,9.77h.51l1.64-2.58C133,5.15,124.42,1,116.53,1,107.43,1,103,6.71,103,12c0,2.39,1.06,4.46,3,6.76H12.88a5.52,5.52,0,0,1-.54-2.5c0-4.65,4.29-8.75,11.13-8.75,7,0,13.55,3.83,19.92,9.77h.51l1.64-2.58C35.85,5.15,27.26,1,19.37,1,10.27,1,5.85,6.71,5.85,12c0,2.39,1.06,4.46,3,6.76H1.44l-.55.74,2.66,5.36h4.1l-.16,33.2,6.29,1.84.55-.4-.16-34.64h8.18c-.07,2.11-.11,4.45-.11,7,0,8.36,1.87,11.29,6.56,14.65a13.33,13.33,0,0,0,7.62,2.73,10.26,10.26,0,0,0,5.35-1.56l-.16,10.47,6.21,1.8.55-.4-.16-34.64h27v5.74a29,29,0,0,0-8.87-1.52c-6.09,0-10.66,3.67-10.66,9.37,0,2.81,1.48,5.62,3.52,8,2.77,2.85,5.43,4.88,9.57,4.88a10.27,10.27,0,0,0,6.4-2l.08,0-.2,8.79,6.06,1.8.55-.4L81.6,44c3.16-3.67,6.6-6.21,9.41-6.21,1.37,0,2,.66,2,2.11,0,3-2.5,7.34-5.86,11.52l5.82,4.49h.54c3-3.9,4.89-8.44,4.89-12.38a11.63,11.63,0,0,0-3.29-8.09,9.21,9.21,0,0,0-7.18-3.36,11,11,0,0,0-6.25,2.27l-.12-.08V24.88h23.29l-.16,33.2,6.29,1.84.55-.4-.16-34.64h28v8.71a83.65,83.65,0,0,0-11.53-.94c-10.27,0-10.85,5.2-10.85,6.21,0,1.64,1.09,3.67,3.28,6s4,3.43,5.35,3.43a3.4,3.4,0,0,0,3.4-4,36.24,36.24,0,0,0-.36-4.3,22.52,22.52,0,0,1,5.71-.58c1.83,0,3.2,0,5,.19l-.2,18.52,6.21,1.8.55-.4-.16-34.64h27.74v5.74a29.08,29.08,0,0,0-8.87-1.52c-6.09,0-10.66,3.67-10.66,9.37,0,2.81,1.48,5.62,3.51,8,2.78,2.85,5.43,4.88,9.57,4.88a10.28,10.28,0,0,0,6.41-2l.08,0-.2,8.79,6.06,1.8.55-.4L179.84,44c3.16-3.67,6.6-6.21,9.41-6.21,1.37,0,1.95.66,1.95,2.11,0,3-2.5,7.34-5.85,11.52l5.82,4.49h.54c3-3.9,4.89-8.44,4.89-12.38a11.63,11.63,0,0,0-3.29-8.09,9.21,9.21,0,0,0-7.18-3.36,11,11,0,0,0-6.25,2.27l-.12-.08V24.88Zm-158,10.66a6.39,6.39,0,0,1-2.42,5.2,10,10,0,0,1-6.06,2.5c-4.06,0-4.3-4-4.3-11.06,0-2.77,0-5.27.12-7.3H41.85Zm33.46,5.2c-3,3.12-6.13,4.6-9.14,4.6-2.62,0-4.18-1-4.18-3.12,0-3.83,3-7.15,9.53-7.15a19.24,19.24,0,0,1,3.79.35Zm98.24,0c-3,3.12-6.13,4.6-9.14,4.6-2.62,0-4.18-1-4.18-3.12,0-3.83,3-7.15,9.53-7.15a19.32,19.32,0,0,1,3.79.35Z"/></svg>